<svg width="797" height="366" viewBox="0 0 797 366" fill="none" xmlns="http://www.w3.org/2000/svg">
<g clip-path="url(#clip0_2314_1316)">
<path d="M697.555 207.311V241.175C688.241 246.211 677.57 249.075 666.232 249.075C636.347 249.075 611.118 229.216 603 201.975L621.49 183.496L626.975 178C626.745 179.679 626.642 181.392 626.642 183.129C626.642 204.988 644.362 222.708 666.221 222.708C678.962 222.708 690.3 216.682 697.544 207.322L697.555 207.311Z" fill="#343E96"/>
<path d="M583.317 222.234V238.333C583.19 242.035 582.753 245.657 582.04 249.165C575.923 279.269 549.315 301.91 517.405 301.91C485.496 301.91 458.784 279.165 452.747 248.969H480.022C485.404 264.447 500.111 275.531 517.405 275.531C533.596 275.531 547.509 265.815 553.65 251.901L583.328 222.223L583.317 222.234Z" fill="#343E96"/>
<path d="M407.869 180.38V64H381.548V182.921C381.548 192.006 378.49 200.365 373.338 207.046C366.105 216.441 354.744 222.501 341.958 222.501C320.098 222.501 302.378 204.781 302.378 182.921C302.378 161.062 320.098 143.342 341.958 143.342C354.733 143.342 366.105 149.402 373.338 158.797V124.898C364.001 119.85 353.319 116.975 341.958 116.975C305.529 116.975 276 146.505 276 182.921C276 219.338 305.529 248.879 341.958 248.879C353.319 248.879 364.001 246.004 373.338 240.945C381.64 236.449 388.885 230.205 394.565 222.719C402.465 212.29 407.34 199.434 407.869 185.463C407.915 184.623 407.927 183.772 407.927 182.91C407.927 182.048 407.915 181.208 407.869 180.369V180.38Z" fill="#343E96"/>
<path d="M731.181 184.713C731.181 185.564 731.169 186.427 731.123 187.266L731.169 248.659H704.848L704.802 184.713C704.802 184.035 704.779 183.356 704.745 182.678V182.609C704.319 174.307 701.33 166.695 696.546 160.52C689.313 151.16 677.964 145.134 665.223 145.134C663.487 145.134 661.774 145.249 660.095 145.468C651.218 146.606 643.249 150.7 637.235 156.725L620.481 173.479L614.674 179.274L599.91 194.039L587.962 205.986L583.317 210.632L579.706 214.243L565.102 228.697L562.561 231.215C560.79 232.882 558.928 234.446 556.984 235.906C545.957 244.197 532.25 249.107 517.394 249.107C502.537 249.107 488.83 244.197 477.814 235.906C468.765 229.111 461.532 220.038 456.944 209.551C453.402 201.467 451.436 192.533 451.436 183.15C451.436 146.721 480.965 117.192 517.394 117.192C532.25 117.192 545.957 122.102 556.984 130.393V117.261H583.305V161.727L580.637 164.383L578.062 166.959L559.686 185.334L556.984 188.037L556.639 188.382C556.869 186.68 556.984 184.943 556.984 183.184V183.127C556.984 161.267 539.264 143.547 517.394 143.547C495.523 143.547 477.814 161.267 477.814 183.127V183.184C477.826 193.315 481.643 202.548 487.91 209.539C495.155 217.623 505.676 222.717 517.394 222.717C519.176 222.717 520.935 222.602 522.649 222.372C532.239 221.096 540.736 216.404 546.877 209.539C546.9 209.574 556.973 199.627 556.973 199.627L565.631 190.969L583.857 172.743L589.653 166.936L589.745 166.844L618.549 138.039C630.485 126.104 646.974 118.721 665.2 118.721C668.362 118.721 671.479 118.951 674.526 119.377C682.391 120.481 689.808 122.987 696.523 126.621C717.152 137.763 731.158 159.588 731.158 184.69L731.181 184.713Z" fill="#343E96"/>
<path d="M443.333 135.51H417.012V248.969H443.333V135.51Z" fill="#343E96"/>
<path d="M430.166 117.065C437.438 117.065 443.332 111.171 443.332 103.899C443.332 96.6276 437.438 90.7329 430.166 90.7329C422.895 90.7329 417 96.6276 417 103.899C417 111.171 422.895 117.065 430.166 117.065Z" fill="#343E96"/>
<path d="M163 87C216.013 87 259 129.976 259 183C259 236.024 216.024 279 163 279C109.976 279 67 236.024 67 183C67 129.976 109.976 87 163 87ZM153.764 224.885L190.809 171.972C193.635 167.933 197.608 165.162 201.981 163.793C208.123 161.868 215.067 162.714 220.754 166.698C230.479 173.508 232.838 186.917 226.028 196.643C219.218 206.368 205.809 208.728 196.083 201.917C190.397 197.934 187.225 191.702 186.936 185.27L176.376 200.348C178.957 205.501 182.819 210.107 187.871 213.646C204.073 224.997 226.418 221.057 237.757 204.855C249.107 188.653 245.168 166.308 228.955 154.958C223.903 151.419 218.25 149.372 212.53 148.715C207.434 148.125 202.27 148.648 197.407 150.206C190.642 152.387 184.466 156.582 179.881 162.636C179.603 162.992 179.325 163.37 179.057 163.749C178.79 164.127 178.534 164.506 178.29 164.895L142.035 216.673L153.742 224.874L153.764 224.885ZM97.0341 211.042C102.086 214.581 107.739 216.628 113.459 217.285C118.555 217.875 123.719 217.352 128.582 215.794C135.347 213.613 141.523 209.418 146.108 203.364C146.386 203.008 146.664 202.63 146.931 202.251C147.198 201.873 147.454 201.494 147.699 201.105L183.954 149.327L172.247 141.126L135.203 194.039C132.376 198.078 128.404 200.849 124.03 202.218C117.888 204.143 110.944 203.297 105.258 199.313C95.5318 192.503 93.1727 179.094 99.983 169.368C106.793 159.643 120.202 157.284 129.928 164.094C135.614 168.078 138.786 174.309 139.075 180.741L149.635 165.663C147.054 160.511 143.192 155.904 138.14 152.365C121.938 141.015 99.5935 144.954 88.2542 161.156C76.9038 177.358 80.8431 199.703 97.0564 211.053L97.0341 211.042Z" fill="#343E96"/>
</g>
<defs>
<clipPath id="clip0_2314_1316">
<rect width="670.949" height="237.82" fill="white" transform="translate(65.5254 64.0898)"/>
</clipPath>
</defs>
</svg>
