<svg width="708" height="433" viewBox="0 0 708 433" fill="none" xmlns="http://www.w3.org/2000/svg">
<g clip-path="url(#clip0_2253_1266)">
<path d="M598.326 246.544V289.255C586.57 295.611 573.116 299.216 558.816 299.216C521.125 299.216 489.291 274.161 479.062 239.8L502.383 216.487L509.309 209.552C509.024 211.665 508.886 213.83 508.886 216.021C508.886 243.595 531.242 265.95 558.816 265.95C574.892 265.95 589.192 258.352 598.326 246.544Z" fill="#343E96"/>
<path d="M455.507 265.484V285.787C455.352 290.453 454.8 295.025 453.894 299.458C446.175 337.424 412.607 365.99 372.364 365.99C332.12 365.99 298.423 337.304 290.798 299.216H325.203C331.991 318.734 350.543 332.724 372.364 332.724C392.787 332.724 410.339 320.468 418.075 302.916L455.507 265.484Z" fill="#343E96"/>
<path d="M232.339 212.804V66H199.133V216.012C199.133 227.475 195.278 238.023 188.783 246.449C179.658 258.3 165.324 265.941 149.204 265.941C121.63 265.941 99.2747 243.586 99.2747 216.012C99.2747 188.438 121.63 166.083 149.204 166.083C165.324 166.083 179.658 173.724 188.783 185.575V142.813C177.011 136.439 163.53 132.817 149.204 132.817C103.251 132.817 66 170.068 66 216.012C66 261.957 103.251 299.216 149.204 299.216C163.53 299.216 177.011 295.594 188.783 289.211C199.263 283.536 208.396 275.67 215.555 266.226C225.525 253.073 231.675 236.85 232.339 219.229C232.391 218.168 232.408 217.09 232.408 216.012C232.408 214.934 232.391 213.865 232.339 212.804Z" fill="#343E96"/>
<path d="M642.02 218.151C642.02 219.229 642.002 220.307 641.951 221.368L642.011 298.811H608.805L608.745 218.151C608.745 217.289 608.719 216.435 608.676 215.581V215.495H608.667C608.124 205.024 604.355 195.416 598.326 187.628C589.201 175.82 574.892 168.222 558.816 168.222C556.625 168.222 554.46 168.36 552.347 168.645C541.143 170.085 531.104 175.251 523.514 182.841L502.383 203.981L495.061 211.294L476.44 229.916L461.363 244.992L455.507 250.848L450.953 255.402L432.531 273.635L429.331 276.809C427.097 278.913 424.751 280.88 422.301 282.726C408.39 293.179 391.097 299.372 372.364 299.372C353.63 299.372 336.337 293.179 322.434 282.726C311.024 274.152 301.89 262.716 296.111 249.477C291.643 239.274 289.168 228.009 289.168 216.168C289.168 170.223 326.419 132.972 372.364 132.972C391.097 132.972 408.39 139.165 422.301 149.618V133.05H455.507V189.146L452.143 192.501L448.892 195.752L425.708 218.936L422.301 222.352L421.862 222.791C422.146 220.644 422.301 218.462 422.301 216.237V216.168C422.301 188.594 399.946 166.238 372.364 166.238C344.781 166.238 322.434 188.594 322.434 216.168V216.237C322.451 229.01 327.264 240.662 335.173 249.477C344.315 259.68 357.589 266.097 372.364 266.097C374.615 266.097 376.831 265.95 378.996 265.657C391.088 264.053 401.809 258.127 409.563 249.477C409.597 249.52 422.301 236.979 422.301 236.979L433.22 226.06L456.214 203.075L463.528 195.752L463.64 195.64L499.977 159.312C515.036 144.262 535.839 134.947 558.816 134.947C562.809 134.947 566.742 135.232 570.58 135.775C580.499 137.172 589.857 140.329 598.326 144.909C624.347 158.967 642.02 186.498 642.02 218.151Z" fill="#343E96"/>
<path d="M277.387 156.095H244.181V299.216H277.387V156.095Z" fill="#343E96"/>
<path d="M260.793 132.817C269.962 132.817 277.396 125.383 277.396 116.214C277.396 107.044 269.962 99.6108 260.793 99.6108C251.623 99.6108 244.19 107.044 244.19 116.214C244.19 125.383 251.623 132.817 260.793 132.817Z" fill="#343E96"/>
</g>
<defs>
<clipPath id="clip0_2253_1266">
<rect width="576.02" height="299.99" fill="white" transform="translate(66 66)"/>
</clipPath>
</defs>
</svg>
